<mxfile host="app.diagrams.net" modified="2023-05-16T14:53:42.582Z" agent="Mozilla/5.0 (Macintosh; Intel Mac OS X 10_15_7) AppleWebKit/537.36 (KHTML, like Gecko) Chrome/113.0.0.0 Safari/537.36" etag="W9FckQH3emmrO3hexXQA" version="21.2.0" type="device">
  <diagram name="Página-1" id="-8M9Hvxfuk3_8nVm3kkI">
    <mxGraphModel dx="1612" dy="2226" grid="1" gridSize="10" guides="0" tooltips="1" connect="1" arrows="1" fold="1" page="1" pageScale="1" pageWidth="827" pageHeight="1169" math="0" shadow="0">
      <root>
        <mxCell id="0" />
        <mxCell id="1" parent="0" />
        <mxCell id="6BjSqbl7BncBYQir4ma8-3" value="&lt;font data-font-src=&quot;https://virgil.excalidraw.com/Virgil.woff2&quot; style=&quot;font-size: 18px;&quot;&gt;End User&lt;/font&gt;" style="shape=umlActor;verticalLabelPosition=bottom;verticalAlign=top;html=1;outlineConnect=0;strokeWidth=3;" vertex="1" parent="1">
          <mxGeometry x="120" y="250" width="30" height="60" as="geometry" />
        </mxCell>
        <mxCell id="6BjSqbl7BncBYQir4ma8-4" value="&lt;font data-font-src=&quot;https://virgil.excalidraw.com/Virgil.woff2&quot;&gt;&lt;font style=&quot;font-size: 18px;&quot;&gt;demo-app&lt;br&gt;&lt;br&gt;&lt;br&gt;&lt;br&gt;&lt;br&gt;&lt;br&gt;&lt;br&gt;&lt;br&gt;&lt;br&gt;&lt;/font&gt;&lt;br&gt;&lt;/font&gt;" style="rounded=1;whiteSpace=wrap;html=1;strokeWidth=3;shadow=0;arcSize=4;" vertex="1" parent="1">
          <mxGeometry x="275" y="150" width="190" height="230" as="geometry" />
        </mxCell>
        <mxCell id="6BjSqbl7BncBYQir4ma8-5" value="&lt;font style=&quot;font-size: 14px;&quot; data-font-src=&quot;https://virgil.excalidraw.com/Virgil.woff2&quot;&gt;camara-node-sdk&lt;/font&gt;" style="rounded=1;whiteSpace=wrap;html=1;strokeWidth=3;opacity=70;" vertex="1" parent="1">
          <mxGeometry x="285" y="200" width="170" height="170" as="geometry" />
        </mxCell>
        <mxCell id="6BjSqbl7BncBYQir4ma8-6" value="" style="endArrow=classic;html=1;rounded=0;entryX=0;entryY=0.5;entryDx=0;entryDy=0;strokeWidth=3;strokeColor=#4eb431;flowAnimation=1;opacity=60;" edge="1" parent="1" target="6BjSqbl7BncBYQir4ma8-5">
          <mxGeometry width="50" height="50" relative="1" as="geometry">
            <mxPoint x="160" y="285" as="sourcePoint" />
            <mxPoint x="795" y="430" as="targetPoint" />
          </mxGeometry>
        </mxCell>
        <mxCell id="6BjSqbl7BncBYQir4ma8-7" value="&lt;font style=&quot;font-size: 14px;&quot; data-font-src=&quot;https://virgil.excalidraw.com/Virgil.woff2&quot;&gt;Verify Device&lt;/font&gt;" style="text;html=1;align=center;verticalAlign=middle;resizable=0;points=[];autosize=1;strokeColor=none;fillColor=none;" vertex="1" parent="1">
          <mxGeometry x="170" y="240" width="110" height="30" as="geometry" />
        </mxCell>
        <mxCell id="6BjSqbl7BncBYQir4ma8-11" value="&lt;font data-font-src=&quot;https://virgil.excalidraw.com/Virgil.woff2&quot;&gt;&lt;font style=&quot;font-size: 18px;&quot;&gt;Other Telco / Hyperscaler&lt;br&gt;&lt;/font&gt;&lt;br&gt;&lt;br&gt;&lt;br&gt;&lt;br&gt;&lt;br&gt;&lt;br&gt;&lt;br&gt;&lt;br&gt;&lt;br&gt;&lt;br&gt;&lt;br&gt;&lt;br&gt;&lt;br&gt;&lt;br&gt;&lt;br&gt;&lt;br&gt;&lt;br&gt;&lt;br&gt;&lt;br&gt;&lt;br&gt;&lt;br&gt;&lt;br&gt;&lt;br&gt;&lt;br&gt;&lt;/font&gt;" style="rounded=1;whiteSpace=wrap;html=1;fillColor=#f8cecc;strokeColor=#b85450;arcSize=2;absoluteArcSize=0;" vertex="1" parent="1">
          <mxGeometry x="700" y="-30" width="400" height="430" as="geometry" />
        </mxCell>
        <mxCell id="6BjSqbl7BncBYQir4ma8-13" value="&lt;font data-font-src=&quot;https://virgil.excalidraw.com/Virgil.woff2&quot;&gt;&lt;font style=&quot;font-size: 14px;&quot;&gt;Aggregator&lt;br&gt;&lt;br&gt;&lt;br&gt;&lt;br&gt;&lt;br&gt;&lt;br&gt;&lt;br&gt;&lt;br&gt;&lt;br&gt;&lt;br&gt;&lt;br&gt;&lt;br&gt;&lt;br&gt;&lt;br&gt;&lt;br&gt;&lt;br&gt;&lt;br&gt;&lt;/font&gt;&lt;br&gt;&lt;/font&gt;" style="rounded=0;whiteSpace=wrap;html=1;" vertex="1" parent="1">
          <mxGeometry x="720" y="40" width="350" height="340" as="geometry" />
        </mxCell>
        <mxCell id="6BjSqbl7BncBYQir4ma8-14" value="&lt;font style=&quot;font-size: 14px;&quot; data-font-src=&quot;https://virgil.excalidraw.com/Virgil.woff2&quot;&gt;telco-finder&lt;/font&gt;" style="rounded=0;whiteSpace=wrap;html=1;" vertex="1" parent="1">
          <mxGeometry x="780" y="110" width="230" height="60" as="geometry" />
        </mxCell>
        <mxCell id="6BjSqbl7BncBYQir4ma8-15" value="&lt;font style=&quot;font-size: 14px;&quot; data-font-src=&quot;https://virgil.excalidraw.com/Virgil.woff2&quot;&gt;authserver&lt;/font&gt;" style="rounded=0;whiteSpace=wrap;html=1;" vertex="1" parent="1">
          <mxGeometry x="780" y="220" width="230" height="60" as="geometry" />
        </mxCell>
        <mxCell id="6BjSqbl7BncBYQir4ma8-16" value="&lt;font style=&quot;font-size: 14px;&quot; data-font-src=&quot;https://virgil.excalidraw.com/Virgil.woff2&quot;&gt;telco-router &amp;lt;proxy&amp;gt;&lt;/font&gt;" style="rounded=0;whiteSpace=wrap;html=1;" vertex="1" parent="1">
          <mxGeometry x="780" y="280" width="230" height="60" as="geometry" />
        </mxCell>
        <mxCell id="6BjSqbl7BncBYQir4ma8-41" value="&lt;font data-font-src=&quot;https://virgil.excalidraw.com/Virgil.woff2&quot;&gt;&lt;font style=&quot;font-size: 18px;&quot;&gt;Telefónica&lt;/font&gt;&lt;br&gt;&lt;br&gt;&lt;br&gt;&lt;br&gt;&lt;br&gt;&lt;br&gt;&lt;br&gt;&lt;br&gt;&lt;br&gt;&lt;br&gt;&lt;br&gt;&lt;br&gt;&lt;br&gt;&lt;br&gt;&lt;br&gt;&lt;br&gt;&lt;br&gt;&lt;br&gt;&lt;br&gt;&lt;br&gt;&lt;br&gt;&lt;br&gt;&lt;br&gt;&lt;br&gt;&lt;br&gt;&lt;/font&gt;" style="rounded=1;whiteSpace=wrap;html=1;fillColor=#b1ddf0;strokeColor=#10739e;arcSize=2;absoluteArcSize=0;" vertex="1" parent="1">
          <mxGeometry x="700" y="580" width="830" height="430" as="geometry" />
        </mxCell>
        <mxCell id="6BjSqbl7BncBYQir4ma8-42" value="&lt;font data-font-src=&quot;https://virgil.excalidraw.com/Virgil.woff2&quot;&gt;&lt;font style=&quot;font-size: 14px;&quot;&gt;Aggregator&lt;br&gt;&lt;br&gt;&lt;br&gt;&lt;br&gt;&lt;br&gt;&lt;br&gt;&lt;br&gt;&lt;br&gt;&lt;br&gt;&lt;br&gt;&lt;br&gt;&lt;br&gt;&lt;br&gt;&lt;br&gt;&lt;br&gt;&lt;br&gt;&lt;br&gt;&lt;/font&gt;&lt;br&gt;&lt;/font&gt;" style="rounded=0;whiteSpace=wrap;html=1;" vertex="1" parent="1">
          <mxGeometry x="720" y="650" width="350" height="340" as="geometry" />
        </mxCell>
        <mxCell id="6BjSqbl7BncBYQir4ma8-43" value="&lt;font style=&quot;font-size: 14px;&quot; data-font-src=&quot;https://virgil.excalidraw.com/Virgil.woff2&quot;&gt;telco-finder&lt;/font&gt;" style="rounded=0;whiteSpace=wrap;html=1;" vertex="1" parent="1">
          <mxGeometry x="780" y="720" width="230" height="60" as="geometry" />
        </mxCell>
        <mxCell id="6BjSqbl7BncBYQir4ma8-44" value="&lt;font style=&quot;font-size: 14px;&quot; data-font-src=&quot;https://virgil.excalidraw.com/Virgil.woff2&quot;&gt;authserver&lt;/font&gt;" style="rounded=0;whiteSpace=wrap;html=1;" vertex="1" parent="1">
          <mxGeometry x="780" y="830" width="230" height="60" as="geometry" />
        </mxCell>
        <mxCell id="6BjSqbl7BncBYQir4ma8-45" value="&lt;font style=&quot;font-size: 14px;&quot; data-font-src=&quot;https://virgil.excalidraw.com/Virgil.woff2&quot;&gt;telco-router &amp;lt;proxy&amp;gt;&lt;/font&gt;" style="rounded=0;whiteSpace=wrap;html=1;" vertex="1" parent="1">
          <mxGeometry x="780" y="890" width="230" height="60" as="geometry" />
        </mxCell>
        <mxCell id="6BjSqbl7BncBYQir4ma8-46" value="&lt;font style=&quot;font-size: 14px;&quot;&gt;&lt;font data-font-src=&quot;https://virgil.excalidraw.com/Virgil.woff2&quot;&gt;Operator Platform&lt;br&gt;&lt;/font&gt;&lt;br&gt;&lt;br&gt;&lt;br&gt;&lt;br&gt;&lt;br&gt;&lt;br&gt;&lt;br&gt;&lt;br&gt;&lt;br&gt;&lt;br&gt;&lt;br&gt;&lt;br&gt;&lt;br&gt;&lt;br&gt;&lt;br&gt;&lt;br&gt;&lt;/font&gt;" style="rounded=0;whiteSpace=wrap;html=1;" vertex="1" parent="1">
          <mxGeometry x="1150" y="650" width="350" height="340" as="geometry" />
        </mxCell>
        <mxCell id="6BjSqbl7BncBYQir4ma8-47" value="&lt;font style=&quot;font-size: 14px;&quot; data-font-src=&quot;https://virgil.excalidraw.com/Virgil.woff2&quot;&gt;authserver&lt;/font&gt;" style="rounded=0;whiteSpace=wrap;html=1;" vertex="1" parent="1">
          <mxGeometry x="1200" y="765" width="120" height="60" as="geometry" />
        </mxCell>
        <mxCell id="6BjSqbl7BncBYQir4ma8-48" value="&lt;font style=&quot;font-size: 14px;&quot; data-font-src=&quot;https://virgil.excalidraw.com/Virgil.woff2&quot; color=&quot;#000000&quot;&gt;apigateway&lt;/font&gt;" style="rounded=0;whiteSpace=wrap;html=1;" vertex="1" parent="1">
          <mxGeometry x="1200" y="870" width="120" height="60" as="geometry" />
        </mxCell>
        <mxCell id="6BjSqbl7BncBYQir4ma8-49" value="&lt;font style=&quot;font-size: 14px;&quot; data-font-src=&quot;https://virgil.excalidraw.com/Virgil.woff2&quot;&gt;user-consents&lt;/font&gt;" style="rounded=0;whiteSpace=wrap;html=1;" vertex="1" parent="1">
          <mxGeometry x="1350" y="765" width="120" height="60" as="geometry" />
        </mxCell>
        <mxCell id="6BjSqbl7BncBYQir4ma8-50" value="" style="rounded=0;whiteSpace=wrap;html=1;" vertex="1" parent="1">
          <mxGeometry x="1350" y="870" width="120" height="60" as="geometry" />
        </mxCell>
        <mxCell id="6BjSqbl7BncBYQir4ma8-51" value="&lt;font style=&quot;font-size: 14px;&quot; data-font-src=&quot;https://virgil.excalidraw.com/Virgil.woff2&quot;&gt;camara-apis&lt;/font&gt;" style="rounded=0;whiteSpace=wrap;html=1;" vertex="1" parent="1">
          <mxGeometry x="1360" y="880" width="120" height="60" as="geometry" />
        </mxCell>
        <mxCell id="6BjSqbl7BncBYQir4ma8-52" value="" style="endArrow=classic;html=1;rounded=0;entryX=0;entryY=0.5;entryDx=0;entryDy=0;" edge="1" parent="1" target="6BjSqbl7BncBYQir4ma8-49">
          <mxGeometry width="50" height="50" relative="1" as="geometry">
            <mxPoint x="1320" y="795" as="sourcePoint" />
            <mxPoint x="1370" y="750" as="targetPoint" />
          </mxGeometry>
        </mxCell>
        <mxCell id="6BjSqbl7BncBYQir4ma8-63" value="" style="endArrow=classic;html=1;rounded=0;entryX=0;entryY=0.25;entryDx=0;entryDy=0;strokeWidth=3;strokeColor=#3700CC;flowAnimation=0;fillColor=#6a00ff;exitX=0.994;exitY=0.194;exitDx=0;exitDy=0;opacity=60;exitPerimeter=0;" edge="1" parent="1" source="6BjSqbl7BncBYQir4ma8-5" target="6BjSqbl7BncBYQir4ma8-15">
          <mxGeometry width="50" height="50" relative="1" as="geometry">
            <mxPoint x="465" y="240" as="sourcePoint" />
            <mxPoint x="585" y="240" as="targetPoint" />
          </mxGeometry>
        </mxCell>
        <mxCell id="6BjSqbl7BncBYQir4ma8-65" value="&lt;font data-font-src=&quot;https://virgil.excalidraw.com/Virgil.woff2&quot;&gt;&lt;font style=&quot;font-size: 14px;&quot;&gt;[1] POST /token&lt;br&gt;ipport 1.2.3.4:8888&lt;/font&gt;&lt;br&gt;&lt;/font&gt;" style="text;html=1;align=center;verticalAlign=middle;resizable=0;points=[];autosize=1;strokeColor=none;fillColor=none;" vertex="1" parent="1">
          <mxGeometry x="520" y="190" width="140" height="50" as="geometry" />
        </mxCell>
        <mxCell id="6BjSqbl7BncBYQir4ma8-66" value="" style="endArrow=classic;html=1;rounded=0;strokeWidth=3;strokeColor=#3700CC;flowAnimation=0;fillColor=#6a00ff;exitX=0.091;exitY=-0.017;exitDx=0;exitDy=0;exitPerimeter=0;entryX=0.087;entryY=1.017;entryDx=0;entryDy=0;entryPerimeter=0;opacity=60;" edge="1" parent="1" source="6BjSqbl7BncBYQir4ma8-15" target="6BjSqbl7BncBYQir4ma8-14">
          <mxGeometry width="50" height="50" relative="1" as="geometry">
            <mxPoint x="480" y="294.5" as="sourcePoint" />
            <mxPoint x="810" y="170" as="targetPoint" />
          </mxGeometry>
        </mxCell>
        <mxCell id="6BjSqbl7BncBYQir4ma8-67" value="&lt;font style=&quot;font-size: 14px;&quot; data-font-src=&quot;https://virgil.excalidraw.com/Virgil.woff2&quot;&gt;[2] Resolve telco&lt;br&gt;with ipport&lt;/font&gt;" style="text;html=1;align=center;verticalAlign=middle;resizable=0;points=[];autosize=1;strokeColor=none;fillColor=none;" vertex="1" parent="1">
          <mxGeometry x="820" y="170" width="130" height="50" as="geometry" />
        </mxCell>
        <mxCell id="6BjSqbl7BncBYQir4ma8-68" value="" style="endArrow=classic;html=1;rounded=0;strokeWidth=3;strokeColor=#6F0000;flowAnimation=0;fillColor=#a20025;entryX=0.874;entryY=0.017;entryDx=0;entryDy=0;entryPerimeter=0;opacity=60;" edge="1" parent="1" target="6BjSqbl7BncBYQir4ma8-15">
          <mxGeometry width="50" height="50" relative="1" as="geometry">
            <mxPoint x="981" y="170" as="sourcePoint" />
            <mxPoint x="810" y="181" as="targetPoint" />
            <Array as="points" />
          </mxGeometry>
        </mxCell>
        <mxCell id="6BjSqbl7BncBYQir4ma8-72" value="&lt;font data-font-src=&quot;https://virgil.excalidraw.com/Virgil.woff2&quot;&gt;&lt;font style=&quot;font-size: 14px;&quot;&gt;[3] get Token&lt;br&gt;(OIDC / 3 legged)&lt;/font&gt;&lt;br&gt;&lt;/font&gt;" style="text;html=1;align=center;verticalAlign=middle;resizable=0;points=[];autosize=1;strokeColor=none;fillColor=none;" vertex="1" parent="1">
          <mxGeometry x="1220" y="460" width="130" height="50" as="geometry" />
        </mxCell>
        <mxCell id="6BjSqbl7BncBYQir4ma8-76" value="" style="endArrow=classic;html=1;rounded=0;strokeWidth=3;strokeColor=#6F0000;flowAnimation=0;fillColor=#a20025;opacity=60;exitX=0;exitY=0.75;exitDx=0;exitDy=0;entryX=0.994;entryY=0.365;entryDx=0;entryDy=0;entryPerimeter=0;" edge="1" parent="1" source="6BjSqbl7BncBYQir4ma8-15" target="6BjSqbl7BncBYQir4ma8-5">
          <mxGeometry width="50" height="50" relative="1" as="geometry">
            <mxPoint x="991" y="180" as="sourcePoint" />
            <mxPoint x="470" y="265" as="targetPoint" />
            <Array as="points" />
          </mxGeometry>
        </mxCell>
        <mxCell id="6BjSqbl7BncBYQir4ma8-77" value="" style="endArrow=classic;html=1;rounded=0;entryX=0;entryY=0.25;entryDx=0;entryDy=0;strokeWidth=3;strokeColor=#C73500;flowAnimation=1;fillColor=#fa6800;exitX=1;exitY=0.582;exitDx=0;exitDy=0;exitPerimeter=0;opacity=80;" edge="1" parent="1" source="6BjSqbl7BncBYQir4ma8-5">
          <mxGeometry width="50" height="50" relative="1" as="geometry">
            <mxPoint x="466" y="300" as="sourcePoint" />
            <mxPoint x="780" y="301" as="targetPoint" />
          </mxGeometry>
        </mxCell>
        <mxCell id="6BjSqbl7BncBYQir4ma8-78" value="&lt;font data-font-src=&quot;https://virgil.excalidraw.com/Virgil.woff2&quot;&gt;&lt;font style=&quot;font-size: 14px;&quot;&gt;[4] POST /devicelocation&lt;/font&gt;&lt;br&gt;&lt;/font&gt;" style="text;html=1;align=center;verticalAlign=middle;resizable=0;points=[];autosize=1;strokeColor=none;fillColor=none;" vertex="1" parent="1">
          <mxGeometry x="530" y="275" width="180" height="30" as="geometry" />
        </mxCell>
        <mxCell id="6BjSqbl7BncBYQir4ma8-79" value="" style="endArrow=classic;html=1;entryX=0;entryY=0.25;entryDx=0;entryDy=0;strokeWidth=3;strokeColor=#C73500;flowAnimation=0;fillColor=#fa6800;exitX=1;exitY=0.25;exitDx=0;exitDy=0;opacity=80;curved=1;" edge="1" parent="1" source="6BjSqbl7BncBYQir4ma8-16" target="6BjSqbl7BncBYQir4ma8-48">
          <mxGeometry width="50" height="50" relative="1" as="geometry">
            <mxPoint x="476" y="329" as="sourcePoint" />
            <mxPoint x="790" y="330" as="targetPoint" />
            <Array as="points">
              <mxPoint x="1080" y="320" />
              <mxPoint x="1060" y="640" />
              <mxPoint x="1080" y="760" />
            </Array>
          </mxGeometry>
        </mxCell>
        <mxCell id="6BjSqbl7BncBYQir4ma8-80" value="&lt;font data-font-src=&quot;https://virgil.excalidraw.com/Virgil.woff2&quot;&gt;&lt;font style=&quot;font-size: 14px;&quot;&gt;[5] api&lt;br&gt;call&lt;/font&gt;&lt;br&gt;&lt;/font&gt;" style="text;html=1;align=center;verticalAlign=middle;resizable=0;points=[];autosize=1;strokeColor=none;fillColor=none;" vertex="1" parent="1">
          <mxGeometry x="1065" y="530" width="60" height="50" as="geometry" />
        </mxCell>
        <mxCell id="6BjSqbl7BncBYQir4ma8-81" value="" style="endArrow=classic;html=1;rounded=0;strokeWidth=3;strokeColor=#314354;flowAnimation=0;fillColor=#647687;exitX=0;exitY=0.75;exitDx=0;exitDy=0;opacity=80;entryX=1;entryY=0.75;entryDx=0;entryDy=0;" edge="1" parent="1" source="6BjSqbl7BncBYQir4ma8-16" target="6BjSqbl7BncBYQir4ma8-5">
          <mxGeometry width="50" height="50" relative="1" as="geometry">
            <mxPoint x="476" y="310" as="sourcePoint" />
            <mxPoint x="470" y="325" as="targetPoint" />
          </mxGeometry>
        </mxCell>
        <mxCell id="6BjSqbl7BncBYQir4ma8-83" value="" style="endArrow=classic;html=1;strokeWidth=3;strokeColor=#314354;flowAnimation=0;fillColor=#647687;exitX=0;exitY=0.75;exitDx=0;exitDy=0;opacity=80;entryX=1.013;entryY=0.633;entryDx=0;entryDy=0;entryPerimeter=0;curved=1;" edge="1" parent="1" source="6BjSqbl7BncBYQir4ma8-48" target="6BjSqbl7BncBYQir4ma8-16">
          <mxGeometry width="50" height="50" relative="1" as="geometry">
            <mxPoint x="790" y="335" as="sourcePoint" />
            <mxPoint x="474" y="333" as="targetPoint" />
            <Array as="points">
              <mxPoint x="1100" y="860" />
              <mxPoint x="1030" y="610" />
              <mxPoint x="1040" y="340" />
            </Array>
          </mxGeometry>
        </mxCell>
        <mxCell id="6BjSqbl7BncBYQir4ma8-84" value="" style="endArrow=classic;html=1;rounded=0;strokeWidth=3;strokeColor=#C73500;flowAnimation=0;fillColor=#fa6800;exitX=1.005;exitY=0.141;exitDx=0;exitDy=0;exitPerimeter=0;opacity=80;" edge="1" parent="1">
          <mxGeometry width="50" height="50" relative="1" as="geometry">
            <mxPoint x="1320" y="889" as="sourcePoint" />
            <mxPoint x="1350" y="890" as="targetPoint" />
          </mxGeometry>
        </mxCell>
        <mxCell id="6BjSqbl7BncBYQir4ma8-85" value="" style="endArrow=classic;html=1;rounded=0;strokeWidth=3;strokeColor=#314354;flowAnimation=0;fillColor=#647687;opacity=80;" edge="1" parent="1">
          <mxGeometry width="50" height="50" relative="1" as="geometry">
            <mxPoint x="1350" y="919.5" as="sourcePoint" />
            <mxPoint x="1320" y="920" as="targetPoint" />
          </mxGeometry>
        </mxCell>
        <mxCell id="6BjSqbl7BncBYQir4ma8-86" value="" style="endArrow=classic;html=1;entryX=0.75;entryY=0;entryDx=0;entryDy=0;strokeWidth=3;strokeColor=#3700CC;flowAnimation=0;fillColor=#6a00ff;exitX=1;exitY=0.25;exitDx=0;exitDy=0;opacity=60;curved=1;" edge="1" parent="1" source="6BjSqbl7BncBYQir4ma8-15" target="6BjSqbl7BncBYQir4ma8-47">
          <mxGeometry width="50" height="50" relative="1" as="geometry">
            <mxPoint x="1140" y="298" as="sourcePoint" />
            <mxPoint x="1465" y="280" as="targetPoint" />
            <Array as="points">
              <mxPoint x="1170" y="280" />
              <mxPoint x="1260" y="700" />
            </Array>
          </mxGeometry>
        </mxCell>
        <mxCell id="6BjSqbl7BncBYQir4ma8-87" value="" style="endArrow=classic;html=1;strokeWidth=3;strokeColor=#6F0000;flowAnimation=0;fillColor=#a20025;opacity=60;exitX=0.5;exitY=0;exitDx=0;exitDy=0;entryX=0.996;entryY=0.65;entryDx=0;entryDy=0;entryPerimeter=0;curved=1;" edge="1" parent="1" source="6BjSqbl7BncBYQir4ma8-47" target="6BjSqbl7BncBYQir4ma8-15">
          <mxGeometry width="50" height="50" relative="1" as="geometry">
            <mxPoint x="1576" y="260" as="sourcePoint" />
            <mxPoint x="1250" y="267" as="targetPoint" />
            <Array as="points">
              <mxPoint x="1190" y="460" />
              <mxPoint x="1080" y="300" />
            </Array>
          </mxGeometry>
        </mxCell>
      </root>
    </mxGraphModel>
  </diagram>
</mxfile>
